<mxfile host="app.diagrams.net" modified="2023-05-29T09:58:00.627Z" agent="Mozilla/5.0 (Windows NT 10.0; Win64; x64) AppleWebKit/537.36 (KHTML, like Gecko) Chrome/113.0.0.0 Safari/537.36 Edg/113.0.1774.50" etag="gFEFEfI-NmYldPguzWqE" version="21.3.2" type="device">
  <diagram name="Page-1" id="wuKPKg8n7fOWSqLQgW6j">
    <mxGraphModel dx="1400" dy="786" grid="0" gridSize="10" guides="1" tooltips="1" connect="1" arrows="1" fold="1" page="1" pageScale="1" pageWidth="827" pageHeight="1169" math="0" shadow="0">
      <root>
        <mxCell id="0" />
        <mxCell id="1" parent="0" />
        <mxCell id="KYZTzPVHc1yOyD898JZF-4" style="edgeStyle=orthogonalEdgeStyle;rounded=0;orthogonalLoop=1;jettySize=auto;html=1;entryX=0.5;entryY=0;entryDx=0;entryDy=0;" edge="1" parent="1" source="KYZTzPVHc1yOyD898JZF-1" target="KYZTzPVHc1yOyD898JZF-3">
          <mxGeometry relative="1" as="geometry" />
        </mxCell>
        <mxCell id="KYZTzPVHc1yOyD898JZF-1" value="" style="rounded=0;whiteSpace=wrap;html=1;" vertex="1" parent="1">
          <mxGeometry x="320" y="60" width="120" height="60" as="geometry" />
        </mxCell>
        <mxCell id="KYZTzPVHc1yOyD898JZF-9" style="edgeStyle=orthogonalEdgeStyle;rounded=0;orthogonalLoop=1;jettySize=auto;html=1;entryX=0.5;entryY=0;entryDx=0;entryDy=0;" edge="1" parent="1" source="KYZTzPVHc1yOyD898JZF-2" target="KYZTzPVHc1yOyD898JZF-8">
          <mxGeometry relative="1" as="geometry" />
        </mxCell>
        <mxCell id="KYZTzPVHc1yOyD898JZF-2" value="Kval" style="rounded=0;whiteSpace=wrap;html=1;" vertex="1" parent="1">
          <mxGeometry x="320" y="240" width="120" height="60" as="geometry" />
        </mxCell>
        <mxCell id="KYZTzPVHc1yOyD898JZF-5" style="edgeStyle=orthogonalEdgeStyle;rounded=0;orthogonalLoop=1;jettySize=auto;html=1;" edge="1" parent="1" source="KYZTzPVHc1yOyD898JZF-3" target="KYZTzPVHc1yOyD898JZF-2">
          <mxGeometry relative="1" as="geometry" />
        </mxCell>
        <mxCell id="KYZTzPVHc1yOyD898JZF-49" style="edgeStyle=orthogonalEdgeStyle;rounded=0;orthogonalLoop=1;jettySize=auto;html=1;entryX=0.5;entryY=0;entryDx=0;entryDy=0;" edge="1" parent="1" source="KYZTzPVHc1yOyD898JZF-3" target="KYZTzPVHc1yOyD898JZF-1">
          <mxGeometry relative="1" as="geometry">
            <Array as="points">
              <mxPoint x="484" y="180" />
              <mxPoint x="484" y="40" />
              <mxPoint x="380" y="40" />
            </Array>
          </mxGeometry>
        </mxCell>
        <mxCell id="KYZTzPVHc1yOyD898JZF-3" value="Kpress" style="rhombus;whiteSpace=wrap;html=1;" vertex="1" parent="1">
          <mxGeometry x="350" y="150" width="60" height="60" as="geometry" />
        </mxCell>
        <mxCell id="KYZTzPVHc1yOyD898JZF-21" style="edgeStyle=orthogonalEdgeStyle;rounded=0;orthogonalLoop=1;jettySize=auto;html=1;entryX=0.5;entryY=0;entryDx=0;entryDy=0;" edge="1" parent="1" source="KYZTzPVHc1yOyD898JZF-8" target="KYZTzPVHc1yOyD898JZF-2">
          <mxGeometry relative="1" as="geometry">
            <Array as="points">
              <mxPoint x="460" y="360" />
              <mxPoint x="460" y="220" />
              <mxPoint x="380" y="220" />
            </Array>
          </mxGeometry>
        </mxCell>
        <mxCell id="KYZTzPVHc1yOyD898JZF-38" style="edgeStyle=orthogonalEdgeStyle;rounded=0;orthogonalLoop=1;jettySize=auto;html=1;" edge="1" parent="1" source="KYZTzPVHc1yOyD898JZF-8" target="KYZTzPVHc1yOyD898JZF-35">
          <mxGeometry relative="1" as="geometry" />
        </mxCell>
        <mxCell id="KYZTzPVHc1yOyD898JZF-8" value="Kack" style="rhombus;whiteSpace=wrap;html=1;" vertex="1" parent="1">
          <mxGeometry x="350" y="330" width="60" height="60" as="geometry" />
        </mxCell>
        <mxCell id="KYZTzPVHc1yOyD898JZF-15" style="edgeStyle=orthogonalEdgeStyle;rounded=0;orthogonalLoop=1;jettySize=auto;html=1;entryX=0.5;entryY=0;entryDx=0;entryDy=0;" edge="1" parent="1" source="KYZTzPVHc1yOyD898JZF-10" target="KYZTzPVHc1yOyD898JZF-12">
          <mxGeometry relative="1" as="geometry" />
        </mxCell>
        <mxCell id="KYZTzPVHc1yOyD898JZF-10" value="" style="rounded=0;whiteSpace=wrap;html=1;" vertex="1" parent="1">
          <mxGeometry x="320" y="585" width="120" height="60" as="geometry" />
        </mxCell>
        <mxCell id="KYZTzPVHc1yOyD898JZF-43" style="edgeStyle=orthogonalEdgeStyle;rounded=0;orthogonalLoop=1;jettySize=auto;html=1;exitX=1;exitY=0.5;exitDx=0;exitDy=0;entryX=0.5;entryY=0;entryDx=0;entryDy=0;" edge="1" parent="1" source="KYZTzPVHc1yOyD898JZF-12" target="KYZTzPVHc1yOyD898JZF-10">
          <mxGeometry relative="1" as="geometry">
            <Array as="points">
              <mxPoint x="459" y="726" />
              <mxPoint x="459" y="565" />
              <mxPoint x="380" y="565" />
            </Array>
          </mxGeometry>
        </mxCell>
        <mxCell id="KYZTzPVHc1yOyD898JZF-44" style="edgeStyle=orthogonalEdgeStyle;rounded=0;orthogonalLoop=1;jettySize=auto;html=1;entryX=0.5;entryY=0;entryDx=0;entryDy=0;" edge="1" parent="1" source="KYZTzPVHc1yOyD898JZF-12" target="KYZTzPVHc1yOyD898JZF-1">
          <mxGeometry relative="1" as="geometry">
            <Array as="points">
              <mxPoint x="273" y="726" />
              <mxPoint x="273" y="40" />
              <mxPoint x="380" y="40" />
            </Array>
          </mxGeometry>
        </mxCell>
        <mxCell id="KYZTzPVHc1yOyD898JZF-12" value="Kack" style="rhombus;whiteSpace=wrap;html=1;" vertex="1" parent="1">
          <mxGeometry x="350" y="696" width="60" height="60" as="geometry" />
        </mxCell>
        <mxCell id="KYZTzPVHc1yOyD898JZF-22" value="CAN_RECEIVE" style="text;html=1;strokeColor=none;fillColor=none;align=center;verticalAlign=middle;whiteSpace=wrap;rounded=0;" vertex="1" parent="1">
          <mxGeometry x="536" y="80" width="110" height="20" as="geometry" />
        </mxCell>
        <mxCell id="KYZTzPVHc1yOyD898JZF-23" value="WRITE_DATA" style="text;html=1;strokeColor=none;fillColor=none;align=center;verticalAlign=middle;whiteSpace=wrap;rounded=0;" vertex="1" parent="1">
          <mxGeometry x="541" y="255" width="100" height="30" as="geometry" />
        </mxCell>
        <mxCell id="KYZTzPVHc1yOyD898JZF-25" value="WAIT_FOR_ACK" style="text;html=1;strokeColor=none;fillColor=none;align=center;verticalAlign=middle;whiteSpace=wrap;rounded=0;" vertex="1" parent="1">
          <mxGeometry x="551" y="600" width="80" height="30" as="geometry" />
        </mxCell>
        <mxCell id="KYZTzPVHc1yOyD898JZF-28" value="F" style="text;html=1;strokeColor=none;fillColor=none;align=center;verticalAlign=middle;whiteSpace=wrap;rounded=0;" vertex="1" parent="1">
          <mxGeometry x="383" y="150" width="60" height="30" as="geometry" />
        </mxCell>
        <mxCell id="KYZTzPVHc1yOyD898JZF-30" value="T" style="text;html=1;strokeColor=none;fillColor=none;align=center;verticalAlign=middle;whiteSpace=wrap;rounded=0;" vertex="1" parent="1">
          <mxGeometry x="360" y="380" width="60" height="30" as="geometry" />
        </mxCell>
        <mxCell id="KYZTzPVHc1yOyD898JZF-31" value="T" style="text;html=1;strokeColor=none;fillColor=none;align=center;verticalAlign=middle;whiteSpace=wrap;rounded=0;" vertex="1" parent="1">
          <mxGeometry x="380" y="696" width="60" height="30" as="geometry" />
        </mxCell>
        <mxCell id="KYZTzPVHc1yOyD898JZF-32" value="T" style="text;html=1;strokeColor=none;fillColor=none;align=center;verticalAlign=middle;whiteSpace=wrap;rounded=0;" vertex="1" parent="1">
          <mxGeometry x="366" y="195" width="60" height="30" as="geometry" />
        </mxCell>
        <mxCell id="KYZTzPVHc1yOyD898JZF-33" value="F" style="text;html=1;strokeColor=none;fillColor=none;align=center;verticalAlign=middle;whiteSpace=wrap;rounded=0;" vertex="1" parent="1">
          <mxGeometry x="384" y="330" width="60" height="30" as="geometry" />
        </mxCell>
        <mxCell id="KYZTzPVHc1yOyD898JZF-34" value="F" style="text;html=1;strokeColor=none;fillColor=none;align=center;verticalAlign=middle;whiteSpace=wrap;rounded=0;" vertex="1" parent="1">
          <mxGeometry x="320" y="696" width="60" height="30" as="geometry" />
        </mxCell>
        <mxCell id="KYZTzPVHc1yOyD898JZF-39" style="edgeStyle=orthogonalEdgeStyle;rounded=0;orthogonalLoop=1;jettySize=auto;html=1;" edge="1" parent="1" source="KYZTzPVHc1yOyD898JZF-35" target="KYZTzPVHc1yOyD898JZF-10">
          <mxGeometry relative="1" as="geometry" />
        </mxCell>
        <mxCell id="KYZTzPVHc1yOyD898JZF-42" style="edgeStyle=orthogonalEdgeStyle;rounded=0;orthogonalLoop=1;jettySize=auto;html=1;entryX=0.5;entryY=0;entryDx=0;entryDy=0;" edge="1" parent="1" source="KYZTzPVHc1yOyD898JZF-35" target="KYZTzPVHc1yOyD898JZF-2">
          <mxGeometry relative="1" as="geometry">
            <Array as="points">
              <mxPoint x="460" y="491" />
              <mxPoint x="460" y="220" />
              <mxPoint x="380" y="220" />
            </Array>
          </mxGeometry>
        </mxCell>
        <mxCell id="KYZTzPVHc1yOyD898JZF-35" value="Kpress" style="rhombus;whiteSpace=wrap;html=1;" vertex="1" parent="1">
          <mxGeometry x="350" y="461" width="60" height="60" as="geometry" />
        </mxCell>
        <mxCell id="KYZTzPVHc1yOyD898JZF-40" value="T" style="text;html=1;strokeColor=none;fillColor=none;align=center;verticalAlign=middle;whiteSpace=wrap;rounded=0;" vertex="1" parent="1">
          <mxGeometry x="381" y="459" width="60" height="30" as="geometry" />
        </mxCell>
        <mxCell id="KYZTzPVHc1yOyD898JZF-41" value="F" style="text;html=1;strokeColor=none;fillColor=none;align=center;verticalAlign=middle;whiteSpace=wrap;rounded=0;" vertex="1" parent="1">
          <mxGeometry x="360" y="512" width="60" height="30" as="geometry" />
        </mxCell>
        <mxCell id="KYZTzPVHc1yOyD898JZF-45" value="Kscan" style="ellipse;whiteSpace=wrap;html=1;" vertex="1" parent="1">
          <mxGeometry x="455" y="75" width="56" height="30" as="geometry" />
        </mxCell>
      </root>
    </mxGraphModel>
  </diagram>
</mxfile>
